HIERARCHY
ROOT ui
{
	 OFFSET 0 0 0
	 CHANNELS 3 XPosition YPosition Z Position
	 EndSite
	 {
	 OFFSET 0 -1 0
	 }
}
ROOT li
{
	 OFFSET 0 0 0
	 CHANNELS 3 XPosition YPosition Z Position
	 EndSite
	 {
	 OFFSET 0 -1 0
	 }
}
ROOT ul
{
	 OFFSET 0 0 0
	 CHANNELS 3 XPosition YPosition Z Position
	 EndSite
	 {
	 OFFSET 0 -1 0
	 }
}
ROOT ll
{
	 OFFSET 0 0 0
	 CHANNELS 3 XPosition YPosition Z Position
	 EndSite
	 {
	 OFFSET 0 -1 0
	 }
}
ROOT tt
{
	 OFFSET 0 0 0
	 CHANNELS 3 XPosition YPosition Z Position
	 EndSite
	 {
	 OFFSET 0 -1 0
	 }
}
ROOT tb
{
	 OFFSET 0 0 0
	 CHANNELS 3 XPosition YPosition Z Position
	 EndSite
	 {
	 OFFSET 0 -1 0
	 }
}
ROOT td
{
	 OFFSET 0 0 0
	 CHANNELS 3 XPosition YPosition Z Position
	 EndSite
	 {
	 OFFSET 0 -1 0
	 }
}
ROOT v
{
	 OFFSET 0 0 0
	 CHANNELS 3 XPosition YPosition Z Position
	 EndSite
	 {
	 OFFSET 0 -1 0
	 }
}
ROOT bn
{
	 OFFSET 0 0 0
	 CHANNELS 3 XPosition YPosition Z Position
	 EndSite
	 {
	 OFFSET 0 -1 0
	 }
}
MOTION
Frames: 10
Frame Time: 0.002
-0.012936104774475097	-7.244120240211487E-4	0		0.565342529296875	-2.421774658203125	0		-0.9714014892578124	0.04525477600097656	0		-0.4279491882324219	-2.584343017578125	0		1.4503389892578125	-0.9506201782226562	0		3.2673515625	-0.29715762329101564	0		4.844580078125	0.004518714904785157	0		5.63287548828125	0.14107078552246094	0		-0.22779570007324218	5.9207265625	0		
0.06752816772460937	-0.01417955207824707	0		0.5860587158203125	-2.426388427734375	0		-0.9806890258789063	0.05095632553100586	0		-0.4572461242675781	-2.590339599609375	0		1.44704052734375	-0.9498604125976563	0		3.23096484375	-0.2998486022949219	0		4.83632177734375	0.012539568901062012	0		5.63049267578125	0.14279251098632811	0		-0.280685302734375	5.90705224609375	0		
-0.009804126739501953	-0.008521788597106934	0		0.5588641967773438	-2.42037451171875	0		-0.9631273803710938	0.04828320693969727	0		-0.4584745178222656	-2.587730224609375	0		1.4436978759765624	-0.9491221313476562	0		3.238505859375	-0.3051622314453125	0		4.827833984375	0.006526607036590576	0		5.62094873046875	0.14468194580078125	0		-0.26927474975585936	5.91649609375	0		
0.07089124298095703	-0.0030088090896606447	0		0.56069873046875	-2.41277685546875	0		-1.0384342041015624	0.05483621597290039	0		-0.4817499084472656	-2.588847412109375	0		1.40250390625	-0.9379059448242187	0		3.257154541015625	-0.3036595153808594	0		4.8244560546875	0.00740195894241333	0		5.6298623046875	0.1285887451171875	0		-0.23690689086914063	5.919638671875	0		
-0.009401853561401368	-3.7023499608039855E-4	0		0.5554674682617188	-2.41411572265625	0		-0.9757559204101562	0.05451839828491211	0		-0.4299649353027344	-2.589993408203125	0		1.440149169921875	-0.9437799682617187	0		3.2430556640625	-0.28775863647460936	0		4.83830078125	0.020000394821166993	0		5.62329248046875	0.14232249450683593	0		-0.24244671630859374	5.92326318359375	0		
0.05727797698974609	-0.008724599838256837	0		0.5492926635742188	-2.41847705078125	0		-0.9789658813476563	0.05505407333374023	0		-0.4700498046875	-2.587943603515625	0		1.43392724609375	-0.94710498046875	0		3.22263525390625	-0.30382241821289063	0		4.82793310546875	0.008868692398071289	0		5.62522412109375	0.13146543884277342	0		-0.24589738464355468	5.9238291015625	0		
-0.02276890754699707	-0.006162817001342773	0		0.5463156127929687	-2.417917236328125	0		-0.98203515625	0.055556739807128906	0		-0.47506008911132813	-2.59039501953125	0		1.4288558349609375	-0.9494855346679687	0		3.23456494140625	-0.30436178588867185	0		4.82486572265625	0.009587918281555176	0		5.6117255859375	0.1504217529296875	0		-0.2832620849609375	5.91881005859375	0		
0.05131399154663086	-0.007680760860443115	0		0.5165425415039062	-2.414041259765625	0		-1.06091455078125	0.058028663635253906	0		-0.49990713500976564	-2.592619384765625	0		1.4280301513671876	-0.9459629516601562	0		3.240650634765625	-0.30586990356445315	0		4.8219677734375	0.010252666473388673	0		5.62098095703125	0.13394900512695312	0		-0.2863606872558594	5.91930126953125	0		
0.05165013885498047	-0.004257060050964355	0		0.543938720703125	-2.411958984375	0		-0.9876395263671875	0.05645499038696289	0		-0.4784519958496094	-2.586490234375	0		1.4284090576171875	-0.94149609375	0		3.218182861328125	-0.2880438537597656	0		4.81926416015625	0.010866118431091308	0		5.61484423828125	0.14729550170898437	0		-0.2551739501953125	5.92530517578125	0		
0.040289127349853515	0.006286316871643066	0		0.5394776611328125	-2.414491943359375	0		-0.9901347045898438	0.056849903106689456	0		-0.4808685913085938	-2.586080322265625	0		1.42289111328125	-0.944989501953125	0		3.23056494140625	-0.29772039794921873	0		4.8167705078125	0.011433692932128906	0		5.61309814453125	0.15350390625	0		-0.12456565856933594	5.9459697265625	0		
